Coordinates
version=1
nRows=16
nColumns=36
inDegrees=yes

Units are S.I. units (second, meters, Newtons, ...)
If the header above contains a line with 'inDegrees', this indicates whether rotational values are in degrees (yes) or radians (no).

endheader
time	pelvis_tilt	pelvis_list	pelvis_rotation	pelvis_tx	pelvis_ty	pelvis_tz	hip_flexion_r	hip_adduction_r	hip_rotation_r	knee_angle_r	knee_angle_r_beta	ankle_angle_r	subtalar_angle_r	mtp_angle_r	hip_flexion_l	hip_adduction_l	hip_rotation_l	knee_angle_l	knee_angle_l_beta	ankle_angle_l	subtalar_angle_l	mtp_angle_l	lumbar_extension	lumbar_bending	lumbar_rotation	arm_flex_r	arm_add_r	arm_rot_r	elbow_flex_r	pro_sup_r	arm_flex_l	arm_add_l	arm_rot_l	elbow_flex_l	pro_sup_l
      4.48333330	    -22.47632103	     -1.37343854	      5.97425349	      0.38155006	      0.83145260	     -0.15660811	     64.04129758	    -15.55916240	     -4.69230937	     67.43987961	      1.17704795	     27.46078699	    -10.17239002	     -7.49999977	     65.10977006	    -10.92642678	     -4.11345444	     64.75157922	      1.13012825	     24.66270760	      2.36109794	     -7.49999977	    -26.08669735	     -3.24413582	     -2.22436434	     75.13116329	      3.61710020	     63.73146049	    121.56053089	     91.02528596	     78.25386753	     10.52878150	     75.22073692	    121.39209122	     86.55185968
      4.50000000	    -22.30754090	     -1.42048067	      5.90283661	      0.37897081	      0.83750641	     -0.15392828	     62.53683324	    -15.25286621	     -5.15891084	     65.15334934	      1.13714046	     26.58425429	    -10.32114511	     -7.49999978	     63.64394587	    -10.86631813	     -4.26648104	     62.67413248	      1.09386997	     23.90795450	      2.29343561	     -7.49999978	    -25.06041638	     -3.23704702	     -2.00112103	     75.34409810	      3.99471164	     63.39916376	    121.71150192	     90.96994423	     77.67403914	     10.97119958	     74.38722155	    121.60884828	     86.42501709
      4.51666670	    -22.03219260	     -1.44570378	      5.78974733	      0.38754658	      0.84374250	     -0.15393231	     60.88924158	    -14.98317642	     -5.58368895	     63.19197120	      1.10290796	     26.09327751	    -10.60755197	     -7.49999978	     62.06383475	    -10.96817660	     -4.47402908	     60.89211664	      1.06276792	     23.43146221	      2.37341144	     -7.49999978	    -23.84926572	     -3.16666084	     -1.70967277	     74.62143770	      4.10228214	     63.58072339	    121.71567239	     90.92941196	     76.65780632	     11.21377459	     73.57329837	    122.03757174	     86.27801523
      4.53333330	    -21.75407227	     -1.52459602	      5.67474880	      0.39336288	      0.85661874	     -0.15532497	     58.80012749	    -14.61755225	     -6.13461779	     60.72738922	      1.05989289	     25.11204038	    -10.80036207	     -7.49999977	     60.42779375	    -11.03391457	     -4.74453802	     58.96219679	      1.02908447	     22.80372275	      2.61696378	     -7.49999977	    -22.40607327	     -2.89003064	     -1.29830899	     73.67874124	      4.37720254	     64.63969943	    121.57802437	     89.27038148	     73.58995242	     10.72787388	     73.84019660	    122.89639687	     84.46832510
      4.55000000	    -21.10189987	     -1.31724530	      5.65373319	      0.40200897	      0.87129186	     -0.15950603	     55.99583264	    -14.69807910	     -6.76898370	     58.03331637	      1.01287245	     23.94555859	    -10.86324829	     -7.49999978	     57.79134862	    -10.80418587	     -5.41198985	     56.56886727	      0.98731299	     22.13148950	      3.07309367	     -7.49999978	    -21.26867445	     -2.88482121	     -0.98954217	     71.65690775	      4.81210542	     65.15047195	    121.55939464	     87.50891766	     71.06563548	     10.75006083	     74.14500871	    123.06028998	     82.93321813
      4.56666670	    -20.40059299	     -1.31829444	      5.57850625	      0.40634920	      0.87879128	     -0.16145247	     53.16161078	    -14.58270117	     -7.46291108	     55.29759905	      0.96512517	     22.89367667	    -10.76603944	     -7.49999979	     55.24763584	    -10.57264166	     -5.81053432	     54.42089259	      0.94982376	     21.68156258	      3.06504360	     -7.49999979	    -20.40169132	     -2.38546131	     -1.67394754	     69.52369572	      5.05671297	     64.90748386	    120.30523643	     87.27566290	     69.81844944	      5.53416770	     63.77199275	    120.69832734	     82.13239537
      4.58333330	    -19.65360973	     -1.27407995	      5.34923562	      0.40611111	      0.88581823	     -0.16062638	     50.97126130	    -14.42519371	     -7.93564328	     53.27895283	      0.92989315	     22.21237795	    -10.43390622	     -7.49999979	     52.76749475	    -10.41663611	     -6.10803520	     52.17948260	      0.91070377	     21.41299082	      3.24516762	     -7.49999979	    -18.96683355	     -2.25787272	     -1.59932929	     67.85248265	      5.89231555	     65.18463968	    120.62215350	     87.35517038	     67.27948713	      7.38878169	     64.74775417	    121.26825726	     82.18567884
      4.60000000	    -19.09157589	     -1.37869751	      5.47904429	      0.40727774	      0.89958531	     -0.15992692	     48.32331102	    -14.15418514	     -8.89527543	     50.24027938	      0.87685829	     20.36771639	    -10.90852645	     -7.49999981	     50.24655446	    -10.10079840	     -6.30209449	     49.01477260	      0.85546916	     20.12496739	      3.07294907	     -7.49999981	    -17.87359179	     -2.12351606	     -1.31103651	     66.72717943	      5.63257519	     65.37891391	    121.44112257	     89.17247864	     66.20674368	      8.98669335	     66.41678578	    120.92226531	     82.66037040
      4.61666670	    -18.88269002	     -1.54931856	      5.62563334	      0.41127437	      0.90979647	     -0.15755778	     45.98631940	    -13.61556949	     -9.59458898	     46.92408550	      0.81897979	     19.19131039	    -10.61024864	     -7.49999981	     48.22895295	     -9.90346598	     -6.43691112	     45.91229766	      0.80132076	     18.91857961	      3.16446921	     -7.49999981	    -16.58659700	     -1.94583328	     -1.29563905	     65.67503400	      5.56733218	     65.27824330	    121.11737668	     89.18082213	     65.32731110	     10.23421950	     67.57791231	    121.62991543	     82.70831002
      4.63333330	    -18.22038735	     -1.85014098	      5.68708914	      0.41538363	      0.91500306	     -0.16058387	     43.41261022	    -12.87114336	    -10.13627051	     43.89882670	      0.76617906	     18.08421537	    -10.87889525	     -7.49999981	     46.14376777	     -9.79020011	     -6.09680459	     43.59302696	      0.76084185	     17.80969085	      2.24049247	     -7.49999981	    -15.86187598	     -1.44423707	     -1.06456853	     65.09968150	      5.06002349	     65.01713203	    121.38217645	     88.62308640	     65.46235813	     11.50645146	     69.47526319	    121.68650192	     82.49921061
      4.65000000	    -18.02716508	     -2.03250902	      5.68009831	      0.41540934	      0.92113997	     -0.16020264	     41.98277676	    -12.37071577	    -10.47662802	     41.75509291	      0.72876385	     17.52598824	    -10.56592861	     -7.49999981	     44.89370764	     -9.67505153	     -6.03384873	     41.79017982	      0.72937623	     17.20870554	      2.38844391	     -7.49999981	    -14.63770035	     -1.22929552	     -1.09165789	     64.44209920	      5.03605043	     64.70211118	    121.38588821	     88.66824407	     65.19205983	     12.00443840	     70.00627437	    121.25826721	     82.46490653
      4.66666670	    -17.70191857	     -2.23662804	      5.76314657	      0.42041364	      0.92446088	     -0.16227871	     40.56466720	    -11.96686691	    -10.68971801	     40.02912322	      0.69864000	     17.08300958	    -10.69344901	     -7.49999982	     43.72302164	     -9.45144795	     -5.52609565	     40.46007497	      0.70616152	     16.77994984	      2.13625323	     -7.49999982	    -13.58137409	     -1.00816640	     -0.57728922	     64.15203217	      4.28237795	     63.88152658	    121.86764424	     88.62348046	     65.43367248	     13.06795845	     70.95461666	    120.40966900	     82.04998305
      4.68333330	    -17.60108703	     -2.37713364	      5.78863542	      0.42504574	      0.93149662	     -0.15953314	     39.39676402	    -11.45258593	    -10.76376919	     38.45451861	      0.67115796	     16.88266020	    -10.22891899	     -7.49999982	     42.56107920	     -9.40172702	     -5.09684279	     38.93571277	      0.67955638	     16.41960570	      2.49947185	     -7.49999982	    -12.38174202	     -0.93648456	     -0.17024718	     63.31050802	      3.90831575	     63.48480167	    121.96062209	     88.60659155	     64.06053820	     12.95164084	     71.64651406	    121.56140665	     81.98940977
      4.70000000	    -17.35990705	     -2.32714095	      5.93915630	      0.43000681	      0.94521068	     -0.16269217	     37.44326762	    -11.14549048	    -11.01666298	     35.98950665	      0.62813539	     15.89372986	    -10.11893304	     -7.49999983	     40.48632778	     -8.86998286	     -4.70065354	     36.22035205	      0.63216440	     15.61545542	      2.77730824	     -7.49999983	    -11.48281575	     -0.82690396	     -0.36210508	     61.87923781	      3.97417379	     63.76711334	    121.62516999	     85.70221327	     62.11437616	     12.76563228	     71.86516263	    121.54127730	     79.37075592
      4.71666670	    -17.15109415	     -2.19284196	      6.29667489	      0.43777980	      0.94706633	     -0.16689900	     35.41723934	    -11.21649938	    -11.60306535	     33.79043418	      0.58975433	     14.97657775	     -9.38804322	     -7.49999983	     38.23117580	     -8.14523608	     -4.35517656	     33.36561733	      0.58233988	     14.87851365	      2.95020758	     -7.49999983	    -10.33208195	     -0.67804739	     -0.31640186	     60.67690015	      3.90740828	     64.47220034	    121.64613098	     85.58789634	     61.22238572	     12.57960046	     72.13233209	    121.80342607	     79.54181918
      4.73333330	    -16.67403020	     -2.11313395	      6.44207016	      0.44196200	      0.95142479	     -0.16386607	     32.96667787	    -10.70191765	    -11.50993307	     30.86866617	      0.53875986	     13.99254734	     -9.60794133	     -7.49999983	     35.89044015	     -7.70534773	     -3.81911755	     30.70647454	      0.53592908	     13.93178353	      2.45061029	     -7.49999983	     -9.44394023	     -0.62980537	     -0.14760227	     59.99203564	      4.29138845	     63.95629196	    121.19728099	     85.68758149	     59.82065089	     12.38758890	     71.79812415	    122.74234700	     79.28512394
